<svg width="1283" height="680" viewBox="0 0 1283 680" fill="none" xmlns="http://www.w3.org/2000/svg">
<g clip-path="url(#clip0_2621_282)">
<path d="M1127.59 373.222L138.009 588.463L144.377 319.412L1124.46 88.0793L1127.59 373.222Z" fill="#DFB96D"/>
<path d="M713.043 518.925L614.372 503.838L637.519 536.451L637.146 537.11L712.584 519.212L713.043 518.925Z" fill="#BE933C"/>
<path d="M712.591 519.22L637.154 537.118L613.69 579.972L712.591 519.22Z" fill="#956D1D"/>
<path d="M1217.82 202.733L1111.66 186.469L1136.56 221.578L1136.18 222.266L1217.36 203.02L1217.82 202.733Z" fill="#BE933C"/>
<path d="M1217.37 203.033L1136.2 222.28L1110.93 268.403L1217.37 203.033Z" fill="#956D1D"/>
<path d="M929.573 82.8464L772.129 58.7809L809.074 110.784L808.5 111.845L928.856 83.2766L929.573 82.8464Z" fill="#BE933C"/>
<path d="M928.86 83.2766L808.504 111.845L771.072 180.227L928.86 83.2766Z" fill="#956D1D"/>
<path d="M178.982 425.4L2.75098 398.438L44.1126 456.665L43.4529 457.841L178.179 425.888L178.982 425.4Z" fill="#BE933C"/>
<path d="M178.174 425.905L43.4474 457.858L1.54077 534.386L178.174 425.905Z" fill="#956D1D"/>
<path d="M252.894 247.188L709.679 139.567" stroke="url(#paint0_linear_2621_282)" stroke-width="6.0809" stroke-linecap="round" stroke-linejoin="round"/>
<path d="M794.145 549.009L1051.12 491.614" stroke="url(#paint1_linear_2621_282)" stroke-width="6.0809" stroke-linecap="round" stroke-linejoin="round"/>
<path d="M894.554 474.681L1151.53 417.285" stroke="url(#paint2_linear_2621_282)" stroke-width="6.0809" stroke-linecap="round" stroke-linejoin="round"/>
<path d="M336.332 578.063L600.02 518.602" stroke="url(#paint3_linear_2621_282)" stroke-width="6.0809" stroke-linecap="round" stroke-linejoin="round"/>
<path d="M144.398 235.887L311.364 195.873" stroke="url(#paint4_linear_2621_282)" stroke-width="6.0809" stroke-linecap="round" stroke-linejoin="round"/>
<path d="M346.261 140.14L323.2 159.129L300.167 178.117V151.499V124.88L323.2 132.51L346.261 140.14Z" fill="#00131B"/>
<path d="M1282.17 428.322L1265.7 441.889L1249.24 455.428V436.439V417.422L1265.7 422.872L1282.17 428.322Z" fill="#00131B"/>
<path d="M747.857 575.125L736.269 584.676L724.681 594.228V580.833V567.437L736.269 571.281L747.857 575.125Z" fill="#BF830A" fill-opacity="0.52"/>
<path d="M1012.32 534.52L1003.65 541.633L995.02 548.776V538.765V528.783L1003.65 531.652L1012.32 534.52Z" fill="#BF830A" fill-opacity="0.52"/>
<path d="M1133.49 8.62971L1120.43 19.3573L1107.41 30.1137V15.0548V-0.00402832L1120.43 4.32718L1133.49 8.62971Z" fill="#00131B"/>
<path d="M38.0343 318.541L19.0172 334.202L0 349.864V327.892V305.921L19.0172 312.231L38.0343 318.541Z" fill="#00131B"/>
<path d="M1050.39 54.2062L1036.88 65.3641L1023.34 76.4933V60.8608V45.257L1036.88 49.7316L1050.39 54.2062Z" fill="#00131B"/>
<path d="M314.097 616.947L275.833 648.47L237.54 679.993V635.792V591.591L275.833 604.269L314.097 616.947Z" fill="#00131B"/>
<path d="M367.157 632.443L351.983 644.949L336.781 657.455V639.929V622.375L351.983 627.423L367.157 632.443Z" fill="#BF830A" fill-opacity="0.52"/>
<path d="M436.282 590.013L424.436 599.766L412.59 609.547V595.865V582.183L424.436 586.084L436.282 590.013Z" fill="#00131B"/>
<path d="M402.141 181.688L392.073 189.978L382.034 198.239V186.651V175.034L392.073 178.361L402.141 181.688Z" fill="#00131B"/>
<path d="M426.652 54.9662L397.768 78.7448L368.884 102.552V69.1932V35.863L397.768 45.4146L426.652 54.9662Z" fill="#00131B"/>
<path d="M277.194 480.639L250.963 377.206L275.279 371.945L289.6 455.941L338.321 452.829L338.56 454.566L277.194 480.639ZM361.595 461.965L334.266 359.182L358.188 354.006L360.086 364.052L404.958 342.511L409.565 363.804L361.121 369.47L367.527 402.894L406.957 384.181L411.478 405.08L368.533 408.18L374.598 440.027L427.579 434.343L427.863 435.657L361.595 461.965ZM468.492 437.461L446.032 350.823L419.461 360.287L415.138 340.308L498.119 330.197L498.517 332.037L469.534 342.436L485.579 433.764L468.492 437.461ZM517.697 359.12L521.261 337.436L504.539 335.825L514.007 312.175L535.899 325.6L518.919 359.682L517.697 359.12ZM643.825 371.182C644.93 378.831 644.116 385.245 641.383 390.422C638.632 395.512 634.652 399.584 629.442 402.637C624.301 405.584 618.532 407.75 612.135 409.134C607.579 410.12 602.372 410.008 596.515 408.798C590.746 407.57 584.852 405.13 578.833 401.479C572.815 397.828 567.144 392.818 561.822 386.448L562.543 385.328C566.636 387.286 570.891 388.934 575.308 390.272C579.812 391.59 584.207 392.612 588.491 393.336C592.757 393.972 596.64 394.324 600.14 394.393C603.728 394.442 606.573 394.239 608.676 393.784C612.795 392.893 616.047 391.18 618.434 388.646C620.909 386.092 621.882 382.534 621.353 377.97L621.268 377.576C620.851 375.648 619.144 373.908 616.148 372.355C613.133 370.714 609.301 369.112 604.651 367.55C600.09 365.968 595.237 364.312 590.093 362.582C585.036 360.832 580.18 358.948 575.523 356.928C570.848 354.821 566.855 352.475 563.543 349.889C560.32 347.284 558.338 344.273 557.599 340.856C557.504 340.418 557.428 340.067 557.371 339.804C557.296 339.454 557.264 339.094 557.275 338.724C557.057 332.626 558.27 326.998 560.914 321.839C563.647 316.662 567.288 312.296 571.84 308.743C576.479 305.171 581.558 302.788 587.079 301.594C592.687 300.38 598.879 299.958 605.655 300.326C612.499 300.588 619.636 301.566 627.066 303.261L624.341 326.278C616.065 321.097 609.132 317.46 603.543 315.368C597.953 313.275 592.968 312.702 588.587 313.65C583.855 314.674 580.475 316.644 578.445 319.56C576.485 322.369 575.917 326.527 576.742 332.036L576.827 332.43C577.263 334.446 578.707 336.243 581.158 337.822C583.61 339.402 586.728 340.883 590.513 342.265C594.278 343.56 598.37 344.876 602.787 346.214C607.273 347.445 611.743 348.817 616.198 350.329C620.722 351.735 624.933 353.393 628.831 355.301C632.711 357.122 635.971 359.26 638.612 361.715C641.234 364.083 642.896 366.888 643.597 370.13L643.825 371.182ZM736.372 379.502L713.912 292.864L687.341 302.328L683.018 282.349L765.999 272.238L766.397 274.078L737.414 284.477L753.459 375.805L736.372 379.502ZM860.696 354.116L838.02 324.35L787.933 344.68L779.468 371.691L777.496 372.118L790.912 260.519L810.997 252.871L875.836 349.052L860.696 354.116ZM806.699 283.245L794.204 324.061L835.76 321.537L806.699 283.245ZM891.766 347.669L865.534 244.236L889.85 238.975L904.171 322.971L952.893 319.859L953.131 321.596L891.766 347.669ZM1052.3 312.661L987.392 272.769L982.981 279.089L991.129 324.382L974.568 327.965L948.838 226.212L972.496 221.093L980.815 267.175L1004.15 212.868L1029.31 214.03L1000.89 253.751L1054.17 312.394L1052.3 312.661Z" fill="#00131B"/>
</g>
<defs>
<linearGradient id="paint0_linear_2621_282" x1="481.287" y1="139.567" x2="481.287" y2="247.188" gradientUnits="userSpaceOnUse">
<stop stop-color="#946B19"/>
<stop offset="1" stop-color="#211804"/>
</linearGradient>
<linearGradient id="paint1_linear_2621_282" x1="922.633" y1="491.614" x2="922.633" y2="549.009" gradientUnits="userSpaceOnUse">
<stop stop-color="#946B19"/>
<stop offset="1" stop-color="#211804"/>
</linearGradient>
<linearGradient id="paint2_linear_2621_282" x1="1023.04" y1="417.285" x2="1023.04" y2="474.681" gradientUnits="userSpaceOnUse">
<stop stop-color="#946B19"/>
<stop offset="1" stop-color="#211804"/>
</linearGradient>
<linearGradient id="paint3_linear_2621_282" x1="468.176" y1="518.602" x2="468.176" y2="578.063" gradientUnits="userSpaceOnUse">
<stop stop-color="#946B19"/>
<stop offset="1" stop-color="#211804"/>
</linearGradient>
<linearGradient id="paint4_linear_2621_282" x1="227.881" y1="195.873" x2="227.881" y2="235.887" gradientUnits="userSpaceOnUse">
<stop stop-color="#946B19"/>
<stop offset="1" stop-color="#211804"/>
</linearGradient>
<clipPath id="clip0_2621_282">
<rect width="1282.18" height="680" fill="white"/>
</clipPath>
</defs>
</svg>
