<svg width="15.000000000000002" height="15.000000000000002" xmlns="http://www.w3.org/2000/svg">

 <g>
  <title>background</title>
  <rect fill="none" id="canvas_background" height="402" width="582" y="-1" x="-1"/>
 </g>
 <g>
  <title>Layer 1</title>
  <path id="svg_1" fill="#00d4ff" d="m7.50006,2.5c-1.02597,0 -1.90803,0.27691 -2.6004,0.87037c-0.68739,0.58919 -1.13707,1.44692 -1.38652,2.51601c-0.05445,0.23332 0.06428,0.47247 0.28305,0.57016c0.21877,0.09769 0.47609,0.02646 0.61348,-0.16982c0.31663,-0.45232 0.63277,-0.72411 0.93653,-0.86359c0.29418,-0.13508 0.61128,-0.16245 0.97449,-0.06516c0.36654,0.09818 0.65028,0.38572 1.09574,0.87019l0.01439,0.01566c0.33579,0.36523 0.74541,0.81078 1.30567,1.15646c0.58136,0.3587 1.30481,0.59971 2.26361,0.59971c1.0259,0 1.908,-0.27692 2.6004,-0.87037c0.6873,-0.58919 1.137,-1.44692 1.3865,-2.51601c0.0544,-0.23332 -0.0643,-0.47247 -0.2831,-0.57016c-0.2187,-0.09769 -0.4761,-0.02647 -0.6135,0.16981c-0.3166,0.45233 -0.6327,0.72411 -0.9365,0.8636c-0.2942,0.13508 -0.6113,0.16245 -0.9745,0.06516c-0.3665,-0.09818 -0.6503,-0.38572 -1.0957,-0.8702l-0.0144,-0.01566c-0.3358,-0.36523 -0.7454,-0.81078 -1.30568,-1.15645c-0.58135,-0.3587 -1.30479,-0.59971 -2.26356,-0.59971z"/>
  <path id="svg_2" fill="#00d4ff" d="m4.00006,6.99999c-1.02597,0 -1.90803,0.27691 -2.6004,0.87037c-0.68739,0.58919 -1.13707,1.44691 -1.38652,2.51604c-0.05445,0.2333 0.06428,0.4724 0.28305,0.5701c0.21877,0.0977 0.47609,0.0265 0.61348,-0.1698c0.31663,-0.4523 0.63277,-0.7241 0.93653,-0.86358c0.29418,-0.13508 0.61127,-0.16245 0.97449,-0.06516c0.36654,0.09818 0.65028,0.38574 1.09574,0.87024l0.01439,0.0156c0.33578,0.3652 0.74542,0.8108 1.30567,1.1565c0.58136,0.3587 1.30479,0.5997 2.26357,0.5997c1.02596,0 1.90802,-0.2769 2.60044,-0.8704c0.6873,-0.5892 1.137,-1.4469 1.3865,-2.516c0.0544,-0.23333 -0.0643,-0.47247 -0.2831,-0.57017c-0.2187,-0.09769 -0.4761,-0.02646 -0.6135,0.16982c-0.3166,0.45233 -0.63272,0.72411 -0.93649,0.86359c-0.29417,0.13508 -0.61127,0.16246 -0.97449,0.06517c-0.36653,-0.09818 -0.65027,-0.38573 -1.09573,-0.8702l-0.0144,-0.01566c-0.33578,-0.36523 -0.74541,-0.81078 -1.30567,-1.15646c-0.58135,-0.35869 -1.30479,-0.5997 -2.26356,-0.5997z"/>
 </g>
</svg>