<svg xmlns="http://www.w3.org/2000/svg" xmlns:xlink="http://www.w3.org/1999/xlink" width="500" zoomAndPan="magnify" viewBox="0 0 375 374.999991" height="500" preserveAspectRatio="xMidYMid meet" version="1.0"><defs><g/><clipPath id="cb6af1a1e7"><path d="M 50.894531 62.054688 L 301.785156 62.054688 L 301.785156 312.945312 L 50.894531 312.945312 Z M 50.894531 62.054688 " clip-rule="nonzero"/></clipPath><clipPath id="d9a87ee439"><path d="M 176.339844 62.054688 C 107.058594 62.054688 50.894531 118.21875 50.894531 187.5 C 50.894531 256.78125 107.058594 312.945312 176.339844 312.945312 C 245.621094 312.945312 301.785156 256.78125 301.785156 187.5 C 301.785156 118.21875 245.621094 62.054688 176.339844 62.054688 Z M 176.339844 62.054688 " clip-rule="nonzero"/></clipPath><linearGradient x1="0.00000443544" gradientTransform="matrix(0.98005, 0, 0, 0.98005, 50.892856, 62.053559)" y1="0.00000443544" x2="255.999992" gradientUnits="userSpaceOnUse" y2="255.999992" id="70429a83d0"><stop stop-opacity="1" stop-color="rgb(0%, 0%, 0%)" offset="0"/><stop stop-opacity="1" stop-color="rgb(0.305176%, 0.221252%, 0.0335693%)" offset="0.00390625"/><stop stop-opacity="1" stop-color="rgb(0.611877%, 0.444031%, 0.0671387%)" offset="0.0078125"/><stop stop-opacity="1" stop-color="rgb(0.917053%, 0.665283%, 0.100708%)" offset="0.0117188"/><stop stop-opacity="1" stop-color="rgb(1.223755%, 0.888062%, 0.134277%)" offset="0.015625"/><stop stop-opacity="1" stop-color="rgb(1.530457%, 1.109314%, 0.167847%)" offset="0.0195312"/><stop stop-opacity="1" stop-color="rgb(1.837158%, 1.332092%, 0.201416%)" offset="0.0234375"/><stop stop-opacity="1" stop-color="rgb(2.142334%, 1.554871%, 0.234985%)" offset="0.0273438"/><stop stop-opacity="1" stop-color="rgb(2.449036%, 1.777649%, 0.268555%)" offset="0.03125"/><stop stop-opacity="1" stop-color="rgb(2.755737%, 1.998901%, 0.302124%)" offset="0.0351562"/><stop stop-opacity="1" stop-color="rgb(3.062439%, 2.22168%, 0.335693%)" offset="0.0390625"/><stop stop-opacity="1" stop-color="rgb(3.367615%, 2.442932%, 0.369263%)" offset="0.0429688"/><stop stop-opacity="1" stop-color="rgb(3.674316%, 2.66571%, 0.402832%)" offset="0.046875"/><stop stop-opacity="1" stop-color="rgb(3.979492%, 2.888489%, 0.436401%)" offset="0.0507812"/><stop stop-opacity="1" stop-color="rgb(4.286194%, 3.111267%, 0.469971%)" offset="0.0546875"/><stop stop-opacity="1" stop-color="rgb(4.592896%, 3.33252%, 0.50354%)" offset="0.0585938"/><stop stop-opacity="1" stop-color="rgb(4.899597%, 3.555298%, 0.537109%)" offset="0.0625"/><stop stop-opacity="1" stop-color="rgb(5.204773%, 3.77655%, 0.570679%)" offset="0.0664062"/><stop stop-opacity="1" stop-color="rgb(5.511475%, 3.999329%, 0.604248%)" offset="0.0703125"/><stop stop-opacity="1" stop-color="rgb(5.818176%, 4.222107%, 0.637817%)" offset="0.0742187"/><stop stop-opacity="1" stop-color="rgb(6.124878%, 4.444885%, 0.671387%)" offset="0.078125"/><stop stop-opacity="1" stop-color="rgb(6.430054%, 4.666138%, 0.704956%)" offset="0.0820313"/><stop stop-opacity="1" stop-color="rgb(6.736755%, 4.888916%, 0.738525%)" offset="0.0859375"/><stop stop-opacity="1" stop-color="rgb(7.041931%, 5.110168%, 0.772095%)" offset="0.0898438"/><stop stop-opacity="1" stop-color="rgb(7.348633%, 5.332947%, 0.805664%)" offset="0.09375"/><stop stop-opacity="1" stop-color="rgb(7.655334%, 5.555725%, 0.839233%)" offset="0.0976562"/><stop stop-opacity="1" stop-color="rgb(7.962036%, 5.778503%, 0.872803%)" offset="0.101562"/><stop stop-opacity="1" stop-color="rgb(8.267212%, 5.999756%, 0.906372%)" offset="0.105469"/><stop stop-opacity="1" stop-color="rgb(8.573914%, 6.222534%, 0.939941%)" offset="0.109375"/><stop stop-opacity="1" stop-color="rgb(8.880615%, 6.443787%, 0.973511%)" offset="0.113281"/><stop stop-opacity="1" stop-color="rgb(9.187317%, 6.666565%, 1.00708%)" offset="0.117188"/><stop stop-opacity="1" stop-color="rgb(9.492493%, 6.889343%, 1.040649%)" offset="0.121094"/><stop stop-opacity="1" stop-color="rgb(9.799194%, 7.112122%, 1.074219%)" offset="0.125"/><stop stop-opacity="1" stop-color="rgb(10.10437%, 7.333374%, 1.107788%)" offset="0.128906"/><stop stop-opacity="1" stop-color="rgb(10.411072%, 7.556152%, 1.141357%)" offset="0.132812"/><stop stop-opacity="1" stop-color="rgb(10.717773%, 7.777405%, 1.174927%)" offset="0.136719"/><stop stop-opacity="1" stop-color="rgb(11.024475%, 8.000183%, 1.208496%)" offset="0.140625"/><stop stop-opacity="1" stop-color="rgb(11.329651%, 8.222961%, 1.242065%)" offset="0.144531"/><stop stop-opacity="1" stop-color="rgb(11.636353%, 8.44574%, 1.275635%)" offset="0.148437"/><stop stop-opacity="1" stop-color="rgb(11.943054%, 8.666992%, 1.309204%)" offset="0.152344"/><stop stop-opacity="1" stop-color="rgb(12.249756%, 8.889771%, 1.342773%)" offset="0.15625"/><stop stop-opacity="1" stop-color="rgb(12.554932%, 9.111023%, 1.376343%)" offset="0.160156"/><stop stop-opacity="1" stop-color="rgb(12.861633%, 9.333801%, 1.409912%)" offset="0.164063"/><stop stop-opacity="1" stop-color="rgb(13.166809%, 9.55658%, 1.443481%)" offset="0.167969"/><stop stop-opacity="1" stop-color="rgb(13.473511%, 9.779358%, 1.477051%)" offset="0.171875"/><stop stop-opacity="1" stop-color="rgb(13.780212%, 10.00061%, 1.51062%)" offset="0.175781"/><stop stop-opacity="1" stop-color="rgb(14.086914%, 10.223389%, 1.544189%)" offset="0.179688"/><stop stop-opacity="1" stop-color="rgb(14.39209%, 10.444641%, 1.577759%)" offset="0.183594"/><stop stop-opacity="1" stop-color="rgb(14.698792%, 10.667419%, 1.611328%)" offset="0.1875"/><stop stop-opacity="1" stop-color="rgb(15.005493%, 10.890198%, 1.644897%)" offset="0.191406"/><stop stop-opacity="1" stop-color="rgb(15.312195%, 11.112976%, 1.678467%)" offset="0.195312"/><stop stop-opacity="1" stop-color="rgb(15.617371%, 11.334229%, 1.712036%)" offset="0.199219"/><stop stop-opacity="1" stop-color="rgb(15.924072%, 11.557007%, 1.745605%)" offset="0.203125"/><stop stop-opacity="1" stop-color="rgb(16.230774%, 11.778259%, 1.779175%)" offset="0.207031"/><stop stop-opacity="1" stop-color="rgb(16.537476%, 12.001038%, 1.812744%)" offset="0.210937"/><stop stop-opacity="1" stop-color="rgb(16.842651%, 12.223816%, 1.846313%)" offset="0.214844"/><stop stop-opacity="1" stop-color="rgb(17.149353%, 12.446594%, 1.879883%)" offset="0.21875"/><stop stop-opacity="1" stop-color="rgb(17.454529%, 12.667847%, 1.913452%)" offset="0.222656"/><stop stop-opacity="1" stop-color="rgb(17.76123%, 12.890625%, 1.947021%)" offset="0.226563"/><stop stop-opacity="1" stop-color="rgb(18.067932%, 13.111877%, 1.980591%)" offset="0.230469"/><stop stop-opacity="1" stop-color="rgb(18.374634%, 13.334656%, 2.01416%)" offset="0.234375"/><stop stop-opacity="1" stop-color="rgb(18.67981%, 13.557434%, 2.047729%)" offset="0.238281"/><stop stop-opacity="1" stop-color="rgb(18.986511%, 13.780212%, 2.081299%)" offset="0.242188"/><stop stop-opacity="1" stop-color="rgb(19.293213%, 14.001465%, 2.114868%)" offset="0.246094"/><stop stop-opacity="1" stop-color="rgb(19.599915%, 14.224243%, 2.149963%)" offset="0.25"/><stop stop-opacity="1" stop-color="rgb(19.90509%, 14.445496%, 2.183533%)" offset="0.253906"/><stop stop-opacity="1" stop-color="rgb(20.211792%, 14.668274%, 2.217102%)" offset="0.257812"/><stop stop-opacity="1" stop-color="rgb(20.516968%, 14.891052%, 2.250671%)" offset="0.261719"/><stop stop-opacity="1" stop-color="rgb(20.823669%, 15.113831%, 2.284241%)" offset="0.265625"/><stop stop-opacity="1" stop-color="rgb(21.130371%, 15.335083%, 2.31781%)" offset="0.269531"/><stop stop-opacity="1" stop-color="rgb(21.437073%, 15.557861%, 2.351379%)" offset="0.273438"/><stop stop-opacity="1" stop-color="rgb(21.742249%, 15.779114%, 2.384949%)" offset="0.277344"/><stop stop-opacity="1" stop-color="rgb(22.04895%, 16.001892%, 2.418518%)" offset="0.28125"/><stop stop-opacity="1" stop-color="rgb(22.355652%, 16.22467%, 2.452087%)" offset="0.285156"/><stop stop-opacity="1" stop-color="rgb(22.662354%, 16.447449%, 2.485657%)" offset="0.289062"/><stop stop-opacity="1" stop-color="rgb(22.967529%, 16.668701%, 2.519226%)" offset="0.292969"/><stop stop-opacity="1" stop-color="rgb(23.274231%, 16.891479%, 2.552795%)" offset="0.296875"/><stop stop-opacity="1" stop-color="rgb(23.579407%, 17.112732%, 2.586365%)" offset="0.300781"/><stop stop-opacity="1" stop-color="rgb(23.886108%, 17.33551%, 2.619934%)" offset="0.304688"/><stop stop-opacity="1" stop-color="rgb(24.19281%, 17.558289%, 2.653503%)" offset="0.308594"/><stop stop-opacity="1" stop-color="rgb(24.499512%, 17.781067%, 2.687073%)" offset="0.3125"/><stop stop-opacity="1" stop-color="rgb(24.804688%, 18.002319%, 2.720642%)" offset="0.316406"/><stop stop-opacity="1" stop-color="rgb(25.111389%, 18.225098%, 2.754211%)" offset="0.320312"/><stop stop-opacity="1" stop-color="rgb(25.418091%, 18.44635%, 2.787781%)" offset="0.324219"/><stop stop-opacity="1" stop-color="rgb(25.724792%, 18.669128%, 2.82135%)" offset="0.328125"/><stop stop-opacity="1" stop-color="rgb(26.029968%, 18.891907%, 2.854919%)" offset="0.332031"/><stop stop-opacity="1" stop-color="rgb(26.33667%, 19.114685%, 2.888489%)" offset="0.335938"/><stop stop-opacity="1" stop-color="rgb(26.641846%, 19.335938%, 2.922058%)" offset="0.339844"/><stop stop-opacity="1" stop-color="rgb(26.948547%, 19.558716%, 2.955627%)" offset="0.34375"/><stop stop-opacity="1" stop-color="rgb(27.255249%, 19.779968%, 2.989197%)" offset="0.347656"/><stop stop-opacity="1" stop-color="rgb(27.561951%, 20.002747%, 3.022766%)" offset="0.351562"/><stop stop-opacity="1" stop-color="rgb(27.867126%, 20.225525%, 3.056335%)" offset="0.355469"/><stop stop-opacity="1" stop-color="rgb(28.173828%, 20.448303%, 3.089905%)" offset="0.359375"/><stop stop-opacity="1" stop-color="rgb(28.48053%, 20.669556%, 3.123474%)" offset="0.363281"/><stop stop-opacity="1" stop-color="rgb(28.787231%, 20.892334%, 3.157043%)" offset="0.367188"/><stop stop-opacity="1" stop-color="rgb(29.092407%, 21.113586%, 3.190613%)" offset="0.371094"/><stop stop-opacity="1" stop-color="rgb(29.399109%, 21.336365%, 3.224182%)" offset="0.375"/><stop stop-opacity="1" stop-color="rgb(29.704285%, 21.559143%, 3.257751%)" offset="0.378906"/><stop stop-opacity="1" stop-color="rgb(30.010986%, 21.781921%, 3.291321%)" offset="0.382812"/><stop stop-opacity="1" stop-color="rgb(30.317688%, 22.003174%, 3.32489%)" offset="0.386719"/><stop stop-opacity="1" stop-color="rgb(30.62439%, 22.225952%, 3.358459%)" offset="0.390625"/><stop stop-opacity="1" stop-color="rgb(30.929565%, 22.447205%, 3.392029%)" offset="0.394531"/><stop stop-opacity="1" stop-color="rgb(31.236267%, 22.669983%, 3.425598%)" offset="0.398438"/><stop stop-opacity="1" stop-color="rgb(31.542969%, 22.892761%, 3.459167%)" offset="0.402344"/><stop stop-opacity="1" stop-color="rgb(31.84967%, 23.11554%, 3.492737%)" offset="0.40625"/><stop stop-opacity="1" stop-color="rgb(32.154846%, 23.336792%, 3.526306%)" offset="0.410156"/><stop stop-opacity="1" stop-color="rgb(32.461548%, 23.55957%, 3.559875%)" offset="0.414062"/><stop stop-opacity="1" stop-color="rgb(32.76825%, 23.780823%, 3.593445%)" offset="0.417969"/><stop stop-opacity="1" stop-color="rgb(33.074951%, 24.003601%, 3.627014%)" offset="0.421875"/><stop stop-opacity="1" stop-color="rgb(33.380127%, 24.226379%, 3.660583%)" offset="0.425781"/><stop stop-opacity="1" stop-color="rgb(33.686829%, 24.449158%, 3.694153%)" offset="0.429688"/><stop stop-opacity="1" stop-color="rgb(33.992004%, 24.67041%, 3.727722%)" offset="0.433594"/><stop stop-opacity="1" stop-color="rgb(34.298706%, 24.893188%, 3.761292%)" offset="0.4375"/><stop stop-opacity="1" stop-color="rgb(34.605408%, 25.114441%, 3.794861%)" offset="0.441406"/><stop stop-opacity="1" stop-color="rgb(34.912109%, 25.337219%, 3.82843%)" offset="0.445312"/><stop stop-opacity="1" stop-color="rgb(35.217285%, 25.559998%, 3.862%)" offset="0.449219"/><stop stop-opacity="1" stop-color="rgb(35.523987%, 25.782776%, 3.895569%)" offset="0.453125"/><stop stop-opacity="1" stop-color="rgb(35.830688%, 26.004028%, 3.929138%)" offset="0.457031"/><stop stop-opacity="1" stop-color="rgb(36.13739%, 26.226807%, 3.962708%)" offset="0.460938"/><stop stop-opacity="1" stop-color="rgb(36.442566%, 26.448059%, 3.996277%)" offset="0.464844"/><stop stop-opacity="1" stop-color="rgb(36.749268%, 26.670837%, 4.029846%)" offset="0.46875"/><stop stop-opacity="1" stop-color="rgb(37.054443%, 26.893616%, 4.063416%)" offset="0.472656"/><stop stop-opacity="1" stop-color="rgb(37.361145%, 27.116394%, 4.096985%)" offset="0.476562"/><stop stop-opacity="1" stop-color="rgb(37.667847%, 27.337646%, 4.130554%)" offset="0.480469"/><stop stop-opacity="1" stop-color="rgb(37.974548%, 27.560425%, 4.164124%)" offset="0.484375"/><stop stop-opacity="1" stop-color="rgb(38.279724%, 27.781677%, 4.197693%)" offset="0.488281"/><stop stop-opacity="1" stop-color="rgb(38.586426%, 28.004456%, 4.232788%)" offset="0.492188"/><stop stop-opacity="1" stop-color="rgb(38.893127%, 28.225708%, 4.266357%)" offset="0.496094"/><stop stop-opacity="1" stop-color="rgb(39.199829%, 28.448486%, 4.299927%)" offset="0.5"/><stop stop-opacity="1" stop-color="rgb(39.505005%, 28.671265%, 4.333496%)" offset="0.503906"/><stop stop-opacity="1" stop-color="rgb(39.811707%, 28.894043%, 4.367065%)" offset="0.507812"/><stop stop-opacity="1" stop-color="rgb(40.116882%, 29.115295%, 4.400635%)" offset="0.511719"/><stop stop-opacity="1" stop-color="rgb(40.423584%, 29.338074%, 4.434204%)" offset="0.515625"/><stop stop-opacity="1" stop-color="rgb(40.730286%, 29.559326%, 4.467773%)" offset="0.519531"/><stop stop-opacity="1" stop-color="rgb(41.036987%, 29.782104%, 4.501343%)" offset="0.523437"/><stop stop-opacity="1" stop-color="rgb(41.342163%, 30.004883%, 4.534912%)" offset="0.527344"/><stop stop-opacity="1" stop-color="rgb(41.648865%, 30.227661%, 4.568481%)" offset="0.53125"/><stop stop-opacity="1" stop-color="rgb(41.955566%, 30.448914%, 4.602051%)" offset="0.535156"/><stop stop-opacity="1" stop-color="rgb(42.262268%, 30.671692%, 4.63562%)" offset="0.539062"/><stop stop-opacity="1" stop-color="rgb(42.567444%, 30.892944%, 4.669189%)" offset="0.542969"/><stop stop-opacity="1" stop-color="rgb(42.874146%, 31.115723%, 4.702759%)" offset="0.546875"/><stop stop-opacity="1" stop-color="rgb(43.179321%, 31.338501%, 4.736328%)" offset="0.550781"/><stop stop-opacity="1" stop-color="rgb(43.486023%, 31.561279%, 4.769897%)" offset="0.554687"/><stop stop-opacity="1" stop-color="rgb(43.792725%, 31.782532%, 4.803467%)" offset="0.558594"/><stop stop-opacity="1" stop-color="rgb(44.099426%, 32.00531%, 4.837036%)" offset="0.5625"/><stop stop-opacity="1" stop-color="rgb(44.404602%, 32.226562%, 4.870605%)" offset="0.566406"/><stop stop-opacity="1" stop-color="rgb(44.711304%, 32.449341%, 4.904175%)" offset="0.570312"/><stop stop-opacity="1" stop-color="rgb(45.018005%, 32.672119%, 4.937744%)" offset="0.574219"/><stop stop-opacity="1" stop-color="rgb(45.324707%, 32.894897%, 4.971313%)" offset="0.578125"/><stop stop-opacity="1" stop-color="rgb(45.629883%, 33.11615%, 5.004883%)" offset="0.582031"/><stop stop-opacity="1" stop-color="rgb(45.936584%, 33.338928%, 5.038452%)" offset="0.585937"/><stop stop-opacity="1" stop-color="rgb(46.243286%, 33.560181%, 5.072021%)" offset="0.589844"/><stop stop-opacity="1" stop-color="rgb(46.549988%, 33.782959%, 5.105591%)" offset="0.59375"/><stop stop-opacity="1" stop-color="rgb(46.855164%, 34.005737%, 5.13916%)" offset="0.597656"/><stop stop-opacity="1" stop-color="rgb(47.161865%, 34.228516%, 5.172729%)" offset="0.601562"/><stop stop-opacity="1" stop-color="rgb(47.467041%, 34.449768%, 5.206299%)" offset="0.605469"/><stop stop-opacity="1" stop-color="rgb(47.773743%, 34.672546%, 5.239868%)" offset="0.609375"/><stop stop-opacity="1" stop-color="rgb(48.080444%, 34.893799%, 5.273438%)" offset="0.613281"/><stop stop-opacity="1" stop-color="rgb(48.387146%, 35.116577%, 5.307007%)" offset="0.617188"/><stop stop-opacity="1" stop-color="rgb(48.692322%, 35.339355%, 5.340576%)" offset="0.621094"/><stop stop-opacity="1" stop-color="rgb(48.999023%, 35.562134%, 5.374146%)" offset="0.625"/><stop stop-opacity="1" stop-color="rgb(49.305725%, 35.783386%, 5.407715%)" offset="0.628906"/><stop stop-opacity="1" stop-color="rgb(49.612427%, 36.006165%, 5.441284%)" offset="0.632812"/><stop stop-opacity="1" stop-color="rgb(49.917603%, 36.227417%, 5.474854%)" offset="0.636719"/><stop stop-opacity="1" stop-color="rgb(50.224304%, 36.450195%, 5.508423%)" offset="0.640625"/><stop stop-opacity="1" stop-color="rgb(50.52948%, 36.672974%, 5.541992%)" offset="0.644531"/><stop stop-opacity="1" stop-color="rgb(50.836182%, 36.895752%, 5.575562%)" offset="0.648438"/><stop stop-opacity="1" stop-color="rgb(51.142883%, 37.117004%, 5.609131%)" offset="0.652344"/><stop stop-opacity="1" stop-color="rgb(51.449585%, 37.339783%, 5.6427%)" offset="0.65625"/><stop stop-opacity="1" stop-color="rgb(51.754761%, 37.561035%, 5.67627%)" offset="0.660156"/><stop stop-opacity="1" stop-color="rgb(52.061462%, 37.783813%, 5.709839%)" offset="0.664063"/><stop stop-opacity="1" stop-color="rgb(52.368164%, 38.006592%, 5.743408%)" offset="0.667969"/><stop stop-opacity="1" stop-color="rgb(52.674866%, 38.22937%, 5.776978%)" offset="0.671875"/><stop stop-opacity="1" stop-color="rgb(52.980042%, 38.450623%, 5.810547%)" offset="0.675781"/><stop stop-opacity="1" stop-color="rgb(53.286743%, 38.673401%, 5.844116%)" offset="0.679688"/><stop stop-opacity="1" stop-color="rgb(53.591919%, 38.894653%, 5.877686%)" offset="0.683594"/><stop stop-opacity="1" stop-color="rgb(53.898621%, 39.117432%, 5.911255%)" offset="0.6875"/><stop stop-opacity="1" stop-color="rgb(54.205322%, 39.34021%, 5.944824%)" offset="0.691406"/><stop stop-opacity="1" stop-color="rgb(54.512024%, 39.562988%, 5.978394%)" offset="0.695313"/><stop stop-opacity="1" stop-color="rgb(54.8172%, 39.784241%, 6.011963%)" offset="0.699219"/><stop stop-opacity="1" stop-color="rgb(55.123901%, 40.007019%, 6.045532%)" offset="0.703125"/><stop stop-opacity="1" stop-color="rgb(55.430603%, 40.228271%, 6.079102%)" offset="0.707031"/><stop stop-opacity="1" stop-color="rgb(55.737305%, 40.45105%, 6.112671%)" offset="0.710938"/><stop stop-opacity="1" stop-color="rgb(56.04248%, 40.673828%, 6.14624%)" offset="0.714844"/><stop stop-opacity="1" stop-color="rgb(56.349182%, 40.896606%, 6.17981%)" offset="0.71875"/><stop stop-opacity="1" stop-color="rgb(56.654358%, 41.117859%, 6.213379%)" offset="0.722656"/><stop stop-opacity="1" stop-color="rgb(56.96106%, 41.340637%, 6.246948%)" offset="0.726563"/><stop stop-opacity="1" stop-color="rgb(57.267761%, 41.56189%, 6.280518%)" offset="0.730469"/><stop stop-opacity="1" stop-color="rgb(57.574463%, 41.784668%, 6.315613%)" offset="0.734375"/><stop stop-opacity="1" stop-color="rgb(57.879639%, 42.007446%, 6.349182%)" offset="0.738281"/><stop stop-opacity="1" stop-color="rgb(58.18634%, 42.230225%, 6.382751%)" offset="0.742188"/><stop stop-opacity="1" stop-color="rgb(58.493042%, 42.451477%, 6.416321%)" offset="0.746094"/><stop stop-opacity="1" stop-color="rgb(58.799744%, 42.674255%, 6.44989%)" offset="0.75"/><stop stop-opacity="1" stop-color="rgb(59.104919%, 42.895508%, 6.483459%)" offset="0.753906"/><stop stop-opacity="1" stop-color="rgb(59.411621%, 43.118286%, 6.517029%)" offset="0.757812"/><stop stop-opacity="1" stop-color="rgb(59.716797%, 43.341064%, 6.550598%)" offset="0.761719"/><stop stop-opacity="1" stop-color="rgb(60.023499%, 43.563843%, 6.584167%)" offset="0.765625"/><stop stop-opacity="1" stop-color="rgb(60.3302%, 43.785095%, 6.617737%)" offset="0.769531"/><stop stop-opacity="1" stop-color="rgb(60.636902%, 44.007874%, 6.651306%)" offset="0.773437"/><stop stop-opacity="1" stop-color="rgb(60.942078%, 44.229126%, 6.684875%)" offset="0.777344"/><stop stop-opacity="1" stop-color="rgb(61.248779%, 44.451904%, 6.718445%)" offset="0.78125"/><stop stop-opacity="1" stop-color="rgb(61.555481%, 44.674683%, 6.752014%)" offset="0.785156"/><stop stop-opacity="1" stop-color="rgb(61.862183%, 44.897461%, 6.785583%)" offset="0.789062"/><stop stop-opacity="1" stop-color="rgb(62.167358%, 45.118713%, 6.819153%)" offset="0.792969"/><stop stop-opacity="1" stop-color="rgb(62.47406%, 45.341492%, 6.852722%)" offset="0.796875"/><stop stop-opacity="1" stop-color="rgb(62.780762%, 45.562744%, 6.886292%)" offset="0.800781"/><stop stop-opacity="1" stop-color="rgb(63.087463%, 45.785522%, 6.919861%)" offset="0.804687"/><stop stop-opacity="1" stop-color="rgb(63.392639%, 46.008301%, 6.95343%)" offset="0.808594"/><stop stop-opacity="1" stop-color="rgb(63.699341%, 46.231079%, 6.987%)" offset="0.8125"/><stop stop-opacity="1" stop-color="rgb(64.004517%, 46.452332%, 7.020569%)" offset="0.816406"/><stop stop-opacity="1" stop-color="rgb(64.311218%, 46.67511%, 7.054138%)" offset="0.820312"/><stop stop-opacity="1" stop-color="rgb(64.61792%, 46.896362%, 7.087708%)" offset="0.824219"/><stop stop-opacity="1" stop-color="rgb(64.924622%, 47.119141%, 7.121277%)" offset="0.828125"/><stop stop-opacity="1" stop-color="rgb(65.229797%, 47.341919%, 7.154846%)" offset="0.832031"/><stop stop-opacity="1" stop-color="rgb(65.536499%, 47.564697%, 7.188416%)" offset="0.835937"/><stop stop-opacity="1" stop-color="rgb(65.843201%, 47.78595%, 7.221985%)" offset="0.839844"/><stop stop-opacity="1" stop-color="rgb(66.149902%, 48.008728%, 7.255554%)" offset="0.84375"/><stop stop-opacity="1" stop-color="rgb(66.455078%, 48.22998%, 7.289124%)" offset="0.847656"/><stop stop-opacity="1" stop-color="rgb(66.76178%, 48.452759%, 7.322693%)" offset="0.851562"/><stop stop-opacity="1" stop-color="rgb(67.066956%, 48.675537%, 7.356262%)" offset="0.855469"/><stop stop-opacity="1" stop-color="rgb(67.373657%, 48.898315%, 7.389832%)" offset="0.859375"/><stop stop-opacity="1" stop-color="rgb(67.680359%, 49.119568%, 7.423401%)" offset="0.863281"/><stop stop-opacity="1" stop-color="rgb(67.987061%, 49.342346%, 7.45697%)" offset="0.867188"/><stop stop-opacity="1" stop-color="rgb(68.292236%, 49.563599%, 7.49054%)" offset="0.871094"/><stop stop-opacity="1" stop-color="rgb(68.598938%, 49.786377%, 7.524109%)" offset="0.875"/><stop stop-opacity="1" stop-color="rgb(68.90564%, 50.009155%, 7.557678%)" offset="0.878906"/><stop stop-opacity="1" stop-color="rgb(69.212341%, 50.231934%, 7.591248%)" offset="0.882812"/><stop stop-opacity="1" stop-color="rgb(69.517517%, 50.453186%, 7.624817%)" offset="0.886719"/><stop stop-opacity="1" stop-color="rgb(69.824219%, 50.675964%, 7.658386%)" offset="0.890625"/><stop stop-opacity="1" stop-color="rgb(70.129395%, 50.897217%, 7.691956%)" offset="0.894531"/><stop stop-opacity="1" stop-color="rgb(70.436096%, 51.119995%, 7.725525%)" offset="0.898438"/><stop stop-opacity="1" stop-color="rgb(70.742798%, 51.342773%, 7.759094%)" offset="0.902344"/><stop stop-opacity="1" stop-color="rgb(71.0495%, 51.565552%, 7.792664%)" offset="0.90625"/><stop stop-opacity="1" stop-color="rgb(71.354675%, 51.786804%, 7.826233%)" offset="0.910156"/><stop stop-opacity="1" stop-color="rgb(71.661377%, 52.009583%, 7.859802%)" offset="0.914063"/><stop stop-opacity="1" stop-color="rgb(71.968079%, 52.230835%, 7.893372%)" offset="0.917969"/><stop stop-opacity="1" stop-color="rgb(72.27478%, 52.453613%, 7.926941%)" offset="0.921875"/><stop stop-opacity="1" stop-color="rgb(72.579956%, 52.676392%, 7.96051%)" offset="0.925781"/><stop stop-opacity="1" stop-color="rgb(72.886658%, 52.89917%, 7.99408%)" offset="0.929688"/><stop stop-opacity="1" stop-color="rgb(73.191833%, 53.120422%, 8.027649%)" offset="0.933594"/><stop stop-opacity="1" stop-color="rgb(73.498535%, 53.343201%, 8.061218%)" offset="0.9375"/><stop stop-opacity="1" stop-color="rgb(73.805237%, 53.564453%, 8.094788%)" offset="0.941406"/><stop stop-opacity="1" stop-color="rgb(74.111938%, 53.787231%, 8.128357%)" offset="0.945313"/><stop stop-opacity="1" stop-color="rgb(74.417114%, 54.01001%, 8.161926%)" offset="0.949219"/><stop stop-opacity="1" stop-color="rgb(74.723816%, 54.232788%, 8.195496%)" offset="0.953125"/><stop stop-opacity="1" stop-color="rgb(75.030518%, 54.454041%, 8.229065%)" offset="0.957031"/><stop stop-opacity="1" stop-color="rgb(75.337219%, 54.676819%, 8.262634%)" offset="0.960938"/><stop stop-opacity="1" stop-color="rgb(75.642395%, 54.898071%, 8.296204%)" offset="0.964844"/><stop stop-opacity="1" stop-color="rgb(75.949097%, 55.12085%, 8.329773%)" offset="0.96875"/><stop stop-opacity="1" stop-color="rgb(76.254272%, 55.342102%, 8.363342%)" offset="0.972656"/><stop stop-opacity="1" stop-color="rgb(76.560974%, 55.56488%, 8.396912%)" offset="0.976563"/><stop stop-opacity="1" stop-color="rgb(76.867676%, 55.787659%, 8.430481%)" offset="0.980469"/><stop stop-opacity="1" stop-color="rgb(77.174377%, 56.010437%, 8.465576%)" offset="0.984375"/><stop stop-opacity="1" stop-color="rgb(77.479553%, 56.231689%, 8.499146%)" offset="0.988281"/><stop stop-opacity="1" stop-color="rgb(77.786255%, 56.454468%, 8.532715%)" offset="0.992188"/><stop stop-opacity="1" stop-color="rgb(78.092957%, 56.67572%, 8.566284%)" offset="0.996094"/><stop stop-opacity="1" stop-color="rgb(78.399658%, 56.898499%, 8.599854%)" offset="1"/></linearGradient><clipPath id="a9427ab78a"><path d="M 139 187 L 213 187 L 213 234 L 139 234 Z M 139 187 " clip-rule="nonzero"/></clipPath><clipPath id="6b97b5b4cf"><path d="M 204.714844 243.914062 L 134.929688 226.183594 L 148.042969 174.570312 L 217.828125 192.300781 Z M 204.714844 243.914062 " clip-rule="nonzero"/></clipPath><clipPath id="9c5d167f19"><path d="M 204.714844 243.914062 L 134.929688 226.183594 L 148.042969 174.570312 L 217.828125 192.300781 Z M 204.714844 243.914062 " clip-rule="nonzero"/></clipPath><clipPath id="a8c2df6d68"><path d="M 204.714844 243.914062 L 134.929688 226.183594 L 148.042969 174.570312 L 217.828125 192.300781 Z M 204.714844 243.914062 " clip-rule="nonzero"/></clipPath></defs><g clip-path="url(#cb6af1a1e7)"><g clip-path="url(#d9a87ee439)"><path fill="url(#70429a83d0)" d="M 50.894531 62.054688 L 50.894531 312.945312 L 301.785156 312.945312 L 301.785156 62.054688 Z M 50.894531 62.054688 " fill-rule="nonzero"/></g></g><g clip-path="url(#a9427ab78a)"><g clip-path="url(#6b97b5b4cf)"><g clip-path="url(#9c5d167f19)"><g clip-path="url(#a8c2df6d68)"><path fill="#ffffff" d="M 194.3125 204.921875 C 193.589844 205.414062 193.007812 205.863281 192.375 206.230469 C 190.269531 207.457031 188.207031 208.765625 186.019531 209.828125 C 183.65625 210.972656 180.976562 209.820312 179.667969 207.464844 C 179.339844 206.882812 178.589844 206.535156 177.964844 206.027344 C 177.851562 205.1875 178.660156 205.039062 179.214844 204.726562 C 184.261719 201.902344 188.574219 198.148438 192.539062 194.011719 C 194.058594 192.433594 195.28125 190.558594 196.582031 188.78125 C 197.597656 187.378906 197.734375 187.179688 199.402344 187.746094 C 202.371094 188.761719 204.75 190.464844 206 193.554688 C 208.175781 198.925781 210.664062 204.179688 211.863281 209.894531 C 212.058594 210.824219 212.136719 211.777344 212.34375 213.277344 C 209.96875 212.199219 207.917969 211.695312 207.105469 209.382812 C 206.609375 207.96875 206.089844 206.5625 205.402344 204.625 C 204.675781 206.292969 204.195312 207.449219 203.675781 208.585938 C 199.773438 217.140625 194.105469 224.3125 185.765625 228.753906 C 178.175781 232.804688 169.953125 234.84375 161.246094 232.746094 C 153.9375 230.980469 148.402344 226.535156 144.097656 220.554688 C 142.378906 218.160156 141.097656 215.4375 139.691406 212.828125 C 139.324219 212.148438 139.238281 211.332031 139.027344 210.570312 C 139.210938 210.464844 139.394531 210.363281 139.578125 210.257812 C 140.332031 211.042969 141.132812 211.789062 141.816406 212.625 C 142.246094 213.148438 142.511719 213.808594 142.828125 214.417969 C 146.867188 222.265625 153.59375 225.796875 162.148438 226.113281 C 168.683594 226.355469 174.648438 224.320312 180.113281 220.839844 C 185.882812 217.175781 190.410156 212.28125 193.871094 206.394531 C 194.03125 206.132812 194.171875 205.863281 194.289062 205.585938 C 194.335938 205.457031 194.300781 205.296875 194.3125 204.921875 Z M 194.3125 204.921875 " fill-opacity="1" fill-rule="nonzero"/></g></g></g></g><g fill="#ffffff" fill-opacity="1"><g transform="translate(99.827066, 208.683376)"><g><path d="M -31.671875 -19.109375 C -31.703125 -19.066406 -31.71875 -19.046875 -31.71875 -19.046875 C -31.78125 -18.960938 -31.84375 -18.953125 -31.90625 -19.015625 C -32 -19.085938 -32.015625 -19.15625 -31.953125 -19.21875 C -31.953125 -19.21875 -31.945312 -19.234375 -31.9375 -19.265625 C -30.800781 -21.742188 -28.78125 -23.757812 -25.875 -25.3125 C -25.8125 -25.351562 -25.75 -25.335938 -25.6875 -25.265625 L -24.921875 -24.390625 C -24.890625 -24.359375 -24.875 -24.328125 -24.875 -24.296875 C -24.875 -24.296875 -24.875 -24.28125 -24.875 -24.25 C -24.875 -24.1875 -24.90625 -24.15625 -24.96875 -24.15625 C -25.625 -23.988281 -26.359375 -23.742188 -27.171875 -23.421875 C -27.992188 -23.097656 -28.800781 -22.59375 -29.59375 -21.90625 C -30.382812 -21.21875 -31.078125 -20.285156 -31.671875 -19.109375 Z M -6.75 -23.921875 L -5.875 -24.75 C -5.8125 -24.820312 -5.75 -24.832031 -5.6875 -24.78125 C -2.925781 -23.125 -1.023438 -21.039062 0.015625 -18.53125 C 0.015625 -18.53125 0.015625 -18.515625 0.015625 -18.484375 C 0.046875 -18.484375 0.0625 -18.46875 0.0625 -18.4375 L 0.046875 -18.390625 C 0.046875 -18.390625 0.0625 -18.375 0.09375 -18.34375 C 0.59375 -17.0625 0.828125 -15.757812 0.796875 -14.4375 L 0.734375 -14.109375 C 0.660156 -12.367188 0.160156 -10.765625 -0.765625 -9.296875 C -1.703125 -7.828125 -2.945312 -6.546875 -4.5 -5.453125 C -6.0625 -4.367188 -7.859375 -3.535156 -9.890625 -2.953125 C -11.921875 -2.378906 -14.085938 -2.117188 -16.390625 -2.171875 C -18.679688 -2.234375 -20.820312 -2.601562 -22.8125 -3.28125 C -24.8125 -3.96875 -26.554688 -4.894531 -28.046875 -6.0625 C -29.546875 -7.238281 -30.722656 -8.582031 -31.578125 -10.09375 C -32.441406 -11.613281 -32.890625 -13.242188 -32.921875 -14.984375 L -32.90625 -15.3125 C -32.90625 -15.4375 -32.835938 -15.5 -32.703125 -15.5 C -32.609375 -15.5 -32.5625 -15.4375 -32.5625 -15.3125 L -32.5625 -15.03125 C -32.519531 -13.0625 -31.785156 -11.296875 -30.359375 -9.734375 C -28.941406 -8.171875 -27.007812 -6.910156 -24.5625 -5.953125 C -22.125 -4.992188 -19.378906 -4.472656 -16.328125 -4.390625 C -13.273438 -4.316406 -10.507812 -4.691406 -8.03125 -5.515625 C -5.550781 -6.347656 -3.550781 -7.507812 -2.03125 -9 C -0.507812 -10.488281 0.316406 -12.195312 0.453125 -14.125 L 0.46875 -14.453125 C 0.5 -15.773438 0.25 -17.070312 -0.28125 -18.34375 C -0.28125 -18.34375 -0.28125 -18.359375 -0.28125 -18.390625 C -0.820312 -19.566406 -1.46875 -20.507812 -2.21875 -21.21875 C -2.96875 -21.9375 -3.726562 -22.472656 -4.5 -22.828125 C -5.28125 -23.191406 -6 -23.476562 -6.65625 -23.6875 C -6.71875 -23.6875 -6.765625 -23.71875 -6.796875 -23.78125 C -6.796875 -23.84375 -6.78125 -23.890625 -6.75 -23.921875 Z M -6.75 -23.921875 "/></g></g></g><g fill="#ffffff" fill-opacity="1"><g transform="translate(101.033309, 185.330686)"><g><path d="M 0.9375 -5.25 C 0.96875 -5.382812 1.03125 -5.441406 1.125 -5.421875 C 1.21875 -5.398438 1.25 -5.320312 1.21875 -5.1875 L 0.5625 -2 C 0.539062 -1.90625 0.484375 -1.867188 0.390625 -1.890625 C 0.296875 -1.910156 0.257812 -1.96875 0.28125 -2.0625 C 0.382812 -2.550781 0.191406 -2.847656 -0.296875 -2.953125 L -30.265625 -9.15625 C -30.421875 -9.1875 -30.539062 -9.160156 -30.625 -9.078125 C -30.71875 -8.972656 -30.738281 -8.800781 -30.6875 -8.5625 C -30.644531 -8.457031 -30.675781 -8.382812 -30.78125 -8.34375 C -30.894531 -8.332031 -30.960938 -8.378906 -30.984375 -8.484375 L -31.234375 -9.390625 L -31.65625 -11.03125 C -31.6875 -11.101562 -31.675781 -11.148438 -31.625 -11.171875 C -31.582031 -11.222656 -31.53125 -11.242188 -31.46875 -11.234375 L 0.0625 -4.71875 C 0.550781 -4.613281 0.84375 -4.789062 0.9375 -5.25 Z M 0.9375 -5.25 "/></g></g></g><g fill="#ffffff" fill-opacity="1"><g transform="translate(102.281668, 179.085476)"><g><path d="M 1.375 -5.21875 C 1.40625 -5.34375 1.46875 -5.390625 1.5625 -5.359375 C 1.65625 -5.328125 1.6875 -5.25 1.65625 -5.125 L 0.734375 -2 C 0.710938 -1.90625 0.65625 -1.875 0.5625 -1.90625 C 0.46875 -1.9375 0.429688 -2 0.453125 -2.09375 C 0.597656 -2.570312 0.429688 -2.878906 -0.046875 -3.015625 L -18.40625 -8.375 C -18.582031 -8.425781 -18.703125 -8.410156 -18.765625 -8.328125 C -18.890625 -8.234375 -18.9375 -8.066406 -18.90625 -7.828125 C -18.875 -7.722656 -18.914062 -7.65625 -19.03125 -7.625 C -19.125 -7.625 -19.191406 -7.675781 -19.234375 -7.78125 L -19.40625 -8.703125 L -19.6875 -10.375 C -19.707031 -10.4375 -19.695312 -10.476562 -19.65625 -10.5 C -19.601562 -10.5625 -19.546875 -10.582031 -19.484375 -10.5625 L 0.453125 -4.734375 C 0.929688 -4.597656 1.238281 -4.757812 1.375 -5.21875 Z M -25.953125 -11.515625 C -26.066406 -11.117188 -26.300781 -10.832031 -26.65625 -10.65625 C -27.007812 -10.476562 -27.363281 -10.441406 -27.71875 -10.546875 C -28.082031 -10.660156 -28.359375 -10.882812 -28.546875 -11.21875 C -28.734375 -11.550781 -28.769531 -11.914062 -28.65625 -12.3125 C -28.550781 -12.675781 -28.328125 -12.953125 -27.984375 -13.140625 C -27.640625 -13.335938 -27.285156 -13.378906 -26.921875 -13.265625 C -26.566406 -13.160156 -26.289062 -12.929688 -26.09375 -12.578125 C -25.894531 -12.234375 -25.847656 -11.878906 -25.953125 -11.515625 Z M -25.953125 -11.515625 "/></g></g></g><g fill="#ffffff" fill-opacity="1"><g transform="translate(103.177053, 173.628553)"><g><path d="M 2.9375 -20.15625 C 3.019531 -20.25 3.109375 -20.238281 3.203125 -20.125 C 4.546875 -18.601562 5.382812 -16.925781 5.71875 -15.09375 C 6.0625 -13.269531 5.859375 -11.5625 5.109375 -9.96875 C 5.046875 -9.820312 4.976562 -9.695312 4.90625 -9.59375 C 4.125 -8.082031 2.976562 -6.921875 1.46875 -6.109375 C -0.03125 -5.296875 -1.695312 -4.878906 -3.53125 -4.859375 C -5.375 -4.835938 -7.195312 -5.242188 -9 -6.078125 C -10.757812 -6.898438 -12.210938 -8.015625 -13.359375 -9.421875 C -14.515625 -10.835938 -15.269531 -12.363281 -15.625 -14 C -15.988281 -15.644531 -15.875 -17.25 -15.28125 -18.8125 C -15.207031 -18.988281 -15.125 -19.175781 -15.03125 -19.375 C -14.988281 -19.457031 -14.925781 -19.476562 -14.84375 -19.4375 C -14.75 -19.394531 -14.722656 -19.332031 -14.765625 -19.25 C -14.847656 -19.070312 -14.914062 -18.894531 -14.96875 -18.71875 C -15.40625 -17.5 -15.390625 -16.226562 -14.921875 -14.90625 C -14.460938 -13.582031 -13.644531 -12.316406 -12.46875 -11.109375 C -11.289062 -9.910156 -9.820312 -8.898438 -8.0625 -8.078125 C -6.289062 -7.253906 -4.546875 -6.773438 -2.828125 -6.640625 C -1.117188 -6.503906 0.382812 -6.703125 1.6875 -7.234375 C 3 -7.773438 3.972656 -8.609375 4.609375 -9.734375 C 4.691406 -9.859375 4.757812 -9.976562 4.8125 -10.09375 C 5.53125 -11.625 5.722656 -13.273438 5.390625 -15.046875 C 5.054688 -16.828125 4.242188 -18.457031 2.953125 -19.9375 C 2.878906 -20.007812 2.875 -20.082031 2.9375 -20.15625 Z M -13.015625 -21.671875 C -13.109375 -21.554688 -13.179688 -21.554688 -13.234375 -21.671875 C -13.304688 -21.734375 -13.304688 -21.800781 -13.234375 -21.875 C -13.171875 -21.914062 -13.085938 -21.984375 -12.984375 -22.078125 C -11.128906 -23.734375 -8.796875 -24.515625 -5.984375 -24.421875 C -5.921875 -24.429688 -5.875 -24.390625 -5.84375 -24.296875 L -5.71875 -23.265625 C -5.6875 -23.242188 -5.675781 -23.21875 -5.6875 -23.1875 C -5.695312 -23.15625 -5.707031 -23.128906 -5.71875 -23.109375 C -5.78125 -23.066406 -5.835938 -23.054688 -5.890625 -23.078125 C -6.367188 -23.304688 -6.992188 -23.441406 -7.765625 -23.484375 C -8.546875 -23.535156 -9.375 -23.441406 -10.25 -23.203125 C -11.132812 -22.972656 -11.976562 -22.523438 -12.78125 -21.859375 C -12.882812 -21.773438 -12.960938 -21.710938 -13.015625 -21.671875 Z M -13.015625 -21.671875 "/></g></g></g><g fill="#ffffff" fill-opacity="1"><g transform="translate(110.905292, 156.967623)"><g><path d="M 3.0625 -4.359375 C 3.144531 -4.460938 3.222656 -4.488281 3.296875 -4.4375 C 3.367188 -4.382812 3.363281 -4.304688 3.28125 -4.203125 L 1.34375 -1.59375 C 1.289062 -1.519531 1.226562 -1.507812 1.15625 -1.5625 C 1.082031 -1.613281 1.070312 -1.675781 1.125 -1.75 C 1.425781 -2.144531 1.375 -2.492188 0.96875 -2.796875 L -23.609375 -21.03125 C -23.734375 -21.125 -23.851562 -21.15625 -23.96875 -21.125 C -24.09375 -21.050781 -24.175781 -20.90625 -24.21875 -20.6875 C -24.238281 -20.570312 -24.300781 -20.519531 -24.40625 -20.53125 C -24.519531 -20.570312 -24.566406 -20.640625 -24.546875 -20.734375 L -24.359375 -21.671875 L -24.078125 -23.34375 C -24.066406 -23.40625 -24.035156 -23.441406 -23.984375 -23.453125 C -23.929688 -23.484375 -23.878906 -23.476562 -23.828125 -23.4375 L 2.03125 -4.25 C 2.4375 -3.945312 2.78125 -3.984375 3.0625 -4.359375 Z M -8.078125 -23.53125 L -6.328125 -13.734375 L 7.8125 -12.09375 C 8.425781 -12.019531 8.890625 -12.195312 9.203125 -12.625 C 9.253906 -12.695312 9.316406 -12.707031 9.390625 -12.65625 C 9.460938 -12.601562 9.472656 -12.539062 9.421875 -12.46875 L 8.890625 -11.75 C 8.890625 -11.75 8.757812 -11.578125 8.5 -11.234375 C 8.25 -10.890625 7.992188 -10.539062 7.734375 -10.1875 C 7.472656 -9.84375 7.34375 -9.671875 7.34375 -9.671875 C 7.289062 -9.597656 7.226562 -9.585938 7.15625 -9.640625 C 7.082031 -9.691406 7.070312 -9.753906 7.125 -9.828125 C 7.21875 -9.953125 7.25 -10.070312 7.21875 -10.1875 C 7.144531 -10.3125 6.984375 -10.382812 6.734375 -10.40625 L -6.203125 -11.953125 C -6.222656 -11.921875 -6.242188 -11.914062 -6.265625 -11.9375 C -6.285156 -11.957031 -6.296875 -11.96875 -6.296875 -11.96875 C -6.328125 -11.988281 -6.34375 -12.019531 -6.34375 -12.0625 L -6.609375 -13.59375 C -6.617188 -13.570312 -6.617188 -13.570312 -6.609375 -13.59375 L -8.421875 -23.46875 C -8.460938 -23.820312 -8.535156 -24 -8.640625 -24 C -8.691406 -24.039062 -8.757812 -24.003906 -8.84375 -23.890625 C -8.914062 -23.796875 -8.988281 -23.773438 -9.0625 -23.828125 C -9.164062 -23.910156 -9.179688 -24 -9.109375 -24.09375 L -8.59375 -24.796875 C -8.59375 -24.796875 -8.503906 -24.910156 -8.328125 -25.140625 C -8.148438 -25.378906 -8.0625 -25.5 -8.0625 -25.5 C -8.007812 -25.582031 -7.929688 -25.582031 -7.828125 -25.5 C -7.753906 -25.445312 -7.742188 -25.378906 -7.796875 -25.296875 C -7.929688 -25.128906 -8.03125 -24.867188 -8.09375 -24.515625 C -8.15625 -24.171875 -8.148438 -23.84375 -8.078125 -23.53125 Z M -8.078125 -23.53125 "/></g></g></g><g fill="#ffffff" fill-opacity="1"><g transform="translate(119.559109, 145.331265)"><g/></g></g><g fill="#ffffff" fill-opacity="1"><g transform="translate(125.995602, 138.074453)"><g><path d="M -1.0625 -39.296875 C -0.976562 -39.347656 -0.90625 -39.320312 -0.84375 -39.21875 L 0.25 -37.625 C 0.300781 -37.539062 0.285156 -37.472656 0.203125 -37.421875 C 0.128906 -37.367188 0.0664062 -37.382812 0.015625 -37.46875 C -0.210938 -37.8125 -0.984375 -37.769531 -2.296875 -37.34375 C -3.617188 -36.925781 -5.148438 -36.125 -6.890625 -34.9375 L -8.84375 -33.59375 L 9.125 -7.3125 C 9.40625 -6.894531 9.742188 -6.820312 10.140625 -7.09375 C 10.210938 -7.144531 10.273438 -7.132812 10.328125 -7.0625 C 10.378906 -6.988281 10.367188 -6.925781 10.296875 -6.875 L 7.59375 -5.03125 C 7.519531 -4.976562 7.457031 -4.988281 7.40625 -5.0625 C 7.351562 -5.132812 7.363281 -5.195312 7.4375 -5.25 C 7.863281 -5.539062 7.9375 -5.894531 7.65625 -6.3125 L -10.3125 -32.59375 L -12.28125 -31.25 C -14.007812 -30.0625 -15.304688 -28.929688 -16.171875 -27.859375 C -17.046875 -26.796875 -17.367188 -26.09375 -17.140625 -25.75 C -17.085938 -25.664062 -17.113281 -25.585938 -17.21875 -25.515625 C -17.300781 -25.460938 -17.367188 -25.476562 -17.421875 -25.5625 L -18.515625 -27.15625 C -18.578125 -27.257812 -18.566406 -27.335938 -18.484375 -27.390625 Z M -1.0625 -39.296875 "/></g></g></g><g fill="#ffffff" fill-opacity="1"><g transform="translate(140.995217, 127.318712)"><g><path d="M 3.015625 -24.5 C 4.648438 -25.019531 6.28125 -25.050781 7.90625 -24.59375 C 9.539062 -24.144531 11.03125 -23.289062 12.375 -22.03125 C 13.726562 -20.769531 14.753906 -19.21875 15.453125 -17.375 C 16.160156 -15.519531 16.429688 -13.675781 16.265625 -11.84375 C 16.109375 -10.007812 15.570312 -8.367188 14.65625 -6.921875 C 13.75 -5.484375 12.523438 -4.441406 10.984375 -3.796875 C 10.984375 -3.796875 10.972656 -3.789062 10.953125 -3.78125 C 10.941406 -3.78125 10.9375 -3.78125 10.9375 -3.78125 C 10.820312 -3.738281 10.707031 -3.691406 10.59375 -3.640625 C 10.445312 -3.585938 10.316406 -3.539062 10.203125 -3.5 C 8.578125 -2.945312 6.945312 -2.898438 5.3125 -3.359375 C 3.675781 -3.828125 2.1875 -4.691406 0.84375 -5.953125 C -0.5 -7.210938 -1.523438 -8.769531 -2.234375 -10.625 C -2.929688 -12.46875 -3.203125 -14.304688 -3.046875 -16.140625 C -2.890625 -17.972656 -2.351562 -19.601562 -1.4375 -21.03125 C -0.519531 -22.46875 0.71875 -23.53125 2.28125 -24.21875 C 2.53125 -24.34375 2.773438 -24.4375 3.015625 -24.5 Z M 14.359375 -12.40625 C 14.347656 -12.789062 14.304688 -13.164062 14.234375 -13.53125 C 14.054688 -14.53125 13.769531 -15.546875 13.375 -16.578125 C 12.863281 -17.929688 12.21875 -19.148438 11.4375 -20.234375 C 11.070312 -20.734375 10.691406 -21.191406 10.296875 -21.609375 C 10.285156 -21.640625 10.269531 -21.660156 10.25 -21.671875 C 10.226562 -21.679688 10.21875 -21.6875 10.21875 -21.6875 C 10.207031 -21.71875 10.1875 -21.742188 10.15625 -21.765625 C 10.125 -21.785156 10.09375 -21.804688 10.0625 -21.828125 C 9.894531 -22.003906 9.734375 -22.164062 9.578125 -22.3125 C 9.378906 -22.5 9.160156 -22.679688 8.921875 -22.859375 C 8.878906 -22.867188 8.878906 -22.867188 8.921875 -22.859375 C 7.992188 -23.515625 7.0625 -23.972656 6.125 -24.234375 C 6.113281 -24.265625 6.097656 -24.273438 6.078125 -24.265625 C 6.066406 -24.265625 6.054688 -24.28125 6.046875 -24.3125 C 5.679688 -24.363281 5.304688 -24.398438 4.921875 -24.421875 C 4.453125 -24.441406 3.988281 -24.398438 3.53125 -24.296875 C 3.457031 -24.304688 3.359375 -24.285156 3.234375 -24.234375 C 3.234375 -24.234375 3.222656 -24.226562 3.203125 -24.21875 C 3.191406 -24.21875 3.171875 -24.210938 3.140625 -24.203125 C 3.015625 -24.179688 2.894531 -24.144531 2.78125 -24.09375 C 2.664062 -24.050781 2.539062 -23.992188 2.40625 -23.921875 C 1.082031 -23.304688 0.109375 -22.222656 -0.515625 -20.671875 C -1.140625 -19.117188 -1.347656 -17.375 -1.140625 -15.4375 C -1.003906 -14.113281 -0.679688 -12.773438 -0.171875 -11.421875 C 0.523438 -9.597656 1.441406 -8.039062 2.578125 -6.75 C 3.710938 -5.46875 4.9375 -4.5625 6.25 -4.03125 C 7.5625 -3.5 8.835938 -3.421875 10.078125 -3.796875 C 10.347656 -3.859375 10.59375 -3.953125 10.8125 -4.078125 C 12.132812 -4.679688 13.101562 -5.738281 13.71875 -7.25 C 14.34375 -8.769531 14.554688 -10.488281 14.359375 -12.40625 Z M 14.359375 -12.40625 "/></g></g></g><g fill="#ffffff" fill-opacity="1"><g transform="translate(159.656521, 120.459842)"><g/></g></g><g fill="#ffffff" fill-opacity="1"><g transform="translate(169.209661, 118.201177)"><g><path d="M 3.078125 -32.578125 C 2.984375 -32.441406 2.957031 -32.265625 3 -32.046875 L 10.640625 -3 C 10.640625 -2.96875 10.640625 -2.9375 10.640625 -2.90625 L 9.921875 0.171875 C 9.921875 0.109375 9.921875 0.109375 9.921875 0.171875 C 9.921875 0.203125 9.90625 0.234375 9.875 0.265625 C 9.84375 0.265625 9.828125 0.265625 9.828125 0.265625 C 9.796875 0.296875 9.78125 0.3125 9.78125 0.3125 C 9.75 0.3125 9.71875 0.296875 9.6875 0.265625 C 9.644531 0.234375 9.609375 0.203125 9.578125 0.171875 L 1.15625 -31.984375 C 1.019531 -32.484375 0.695312 -32.726562 0.1875 -32.71875 C 0.09375 -32.71875 0.046875 -32.765625 0.046875 -32.859375 C 0.046875 -32.984375 0.09375 -33.046875 0.1875 -33.046875 L 2.59375 -33.078125 C 2.59375 -33.078125 2.597656 -33.078125 2.609375 -33.078125 C 2.628906 -33.078125 2.640625 -33.078125 2.640625 -33.078125 L 3.5 -33.09375 C 3.59375 -33.09375 3.640625 -33.03125 3.640625 -32.90625 C 3.640625 -32.8125 3.59375 -32.765625 3.5 -32.765625 C 3.3125 -32.765625 3.171875 -32.703125 3.078125 -32.578125 Z M 18.5625 -33.265625 C 18.65625 -33.265625 18.703125 -33.203125 18.703125 -33.078125 C 18.703125 -32.984375 18.65625 -32.9375 18.5625 -32.9375 C 18.050781 -32.925781 17.738281 -32.671875 17.625 -32.171875 L 12.21875 -9.4375 C 12.1875 -9.34375 12.140625 -9.296875 12.078125 -9.296875 C 12.046875 -9.296875 12.03125 -9.296875 12.03125 -9.296875 C 11.90625 -9.328125 11.859375 -9.390625 11.890625 -9.484375 L 17.34375 -32.21875 C 17.363281 -32.4375 17.328125 -32.609375 17.234375 -32.734375 C 17.140625 -32.859375 17 -32.921875 16.8125 -32.921875 C 16.6875 -32.910156 16.625 -32.953125 16.625 -33.046875 C 16.625 -33.171875 16.6875 -33.238281 16.8125 -33.25 Z M 18.5625 -33.265625 "/></g></g></g><g fill="#ffffff" fill-opacity="1"><g transform="translate(186.778406, 118.293966)"><g><path d="M 5.359375 0.578125 C 5.484375 0.585938 5.539062 0.640625 5.53125 0.734375 C 5.519531 0.828125 5.453125 0.867188 5.328125 0.859375 L 2.09375 0.421875 C 2 0.410156 1.957031 0.359375 1.96875 0.265625 C 1.976562 0.171875 2.03125 0.128906 2.125 0.140625 C 2.613281 0.203125 2.894531 -0.0078125 2.96875 -0.5 L 5.5 -19.46875 C 5.53125 -19.644531 5.5 -19.753906 5.40625 -19.796875 C 5.3125 -19.910156 5.144531 -19.929688 4.90625 -19.859375 C 4.800781 -19.804688 4.726562 -19.835938 4.6875 -19.953125 C 4.664062 -20.054688 4.707031 -20.128906 4.8125 -20.171875 L 5.6875 -20.484375 L 7.296875 -21.03125 C 7.359375 -21.050781 7.40625 -21.046875 7.4375 -21.015625 C 7.488281 -20.972656 7.507812 -20.921875 7.5 -20.859375 L 4.75 -0.25 C 4.675781 0.238281 4.878906 0.515625 5.359375 0.578125 Z M 7.5 -27.390625 C 7.082031 -27.441406 6.757812 -27.625 6.53125 -27.9375 C 6.3125 -28.257812 6.226562 -28.609375 6.28125 -28.984375 C 6.320312 -29.359375 6.492188 -29.664062 6.796875 -29.90625 C 7.097656 -30.144531 7.457031 -30.238281 7.875 -30.1875 C 8.25 -30.132812 8.550781 -29.953125 8.78125 -29.640625 C 9.019531 -29.328125 9.117188 -28.984375 9.078125 -28.609375 C 9.023438 -28.234375 8.84375 -27.921875 8.53125 -27.671875 C 8.21875 -27.429688 7.875 -27.335938 7.5 -27.390625 Z M 7.5 -27.390625 "/></g></g></g><g fill="#ffffff" fill-opacity="1"><g transform="translate(192.250247, 118.270593)"><g><path d="M 17.359375 -17.5625 C 18.972656 -16.96875 20.285156 -15.992188 21.296875 -14.640625 C 22.316406 -13.285156 22.972656 -11.695312 23.265625 -9.875 C 23.554688 -8.0625 23.421875 -6.207031 22.859375 -4.3125 C 22.828125 -4.21875 22.765625 -4.1875 22.671875 -4.21875 L 12 -7.4375 C 11.875 -7.46875 11.828125 -7.53125 11.859375 -7.625 C 11.878906 -7.71875 11.953125 -7.75 12.078125 -7.71875 L 21.171875 -4.96875 C 21.679688 -6.78125 21.851562 -8.535156 21.6875 -10.234375 C 21.53125 -11.929688 21.070312 -13.398438 20.3125 -14.640625 C 19.550781 -15.890625 18.535156 -16.757812 17.265625 -17.25 C 17.035156 -17.351562 16.78125 -17.425781 16.5 -17.46875 C 15.175781 -17.769531 13.84375 -17.601562 12.5 -16.96875 C 11.164062 -16.34375 9.957031 -15.359375 8.875 -14.015625 C 7.800781 -12.671875 6.988281 -11.082031 6.4375 -9.25 C 5.882812 -7.414062 5.6875 -5.644531 5.84375 -3.9375 C 6 -2.226562 6.460938 -0.742188 7.234375 0.515625 C 8.003906 1.785156 9.023438 2.664062 10.296875 3.15625 C 10.429688 3.226562 10.5625 3.28125 10.6875 3.3125 C 12.34375 3.8125 14.015625 3.765625 15.703125 3.171875 C 17.390625 2.578125 18.878906 1.519531 20.171875 0 C 20.253906 -0.0703125 20.335938 -0.078125 20.421875 -0.015625 C 20.492188 0.0664062 20.503906 0.144531 20.453125 0.21875 C 19.128906 1.78125 17.582031 2.859375 15.8125 3.453125 C 14.050781 4.054688 12.316406 4.097656 10.609375 3.578125 C 10.453125 3.535156 10.316406 3.5 10.203125 3.46875 C 8.597656 2.914062 7.285156 1.953125 6.265625 0.578125 C 5.242188 -0.785156 4.585938 -2.378906 4.296875 -4.203125 C 4.003906 -6.023438 4.144531 -7.882812 4.71875 -9.78125 C 5.28125 -11.675781 6.1875 -13.296875 7.4375 -14.640625 C 8.6875 -15.992188 10.113281 -16.953125 11.71875 -17.515625 C 13.320312 -18.085938 14.945312 -18.175781 16.59375 -17.78125 C 16.875 -17.738281 17.128906 -17.664062 17.359375 -17.5625 Z M 17.359375 -17.5625 "/></g></g></g><g fill="#ffffff" fill-opacity="1"><g transform="translate(210.563026, 123.232825)"><g><path d="M 9.390625 2.984375 C 9.367188 3.003906 9.351562 3.03125 9.34375 3.0625 L 7.40625 4.71875 C 7.375 4.769531 7.316406 4.773438 7.234375 4.734375 C 7.179688 4.691406 7.15625 4.640625 7.15625 4.578125 L 12.09375 -16.75 C 12.21875 -17.257812 12.050781 -17.65625 11.59375 -17.9375 C 11.507812 -17.976562 11.488281 -18.039062 11.53125 -18.125 C 11.601562 -18.226562 11.679688 -18.257812 11.765625 -18.21875 L 14.640625 -16.484375 C 14.722656 -16.441406 14.726562 -16.367188 14.65625 -16.265625 C 14.613281 -16.179688 14.550781 -16.160156 14.46875 -16.203125 C 14.3125 -16.296875 14.160156 -16.316406 14.015625 -16.265625 C 13.859375 -16.210938 13.757812 -16.085938 13.71875 -15.890625 Z M 20.171875 -6.5625 C 20.097656 -6.632812 20.109375 -6.707031 20.203125 -6.78125 L 23.75 -9.859375 C 23.90625 -9.992188 23.976562 -10.140625 23.96875 -10.296875 C 23.976562 -10.429688 23.898438 -10.546875 23.734375 -10.640625 C 23.660156 -10.691406 23.644531 -10.757812 23.6875 -10.84375 C 23.757812 -10.945312 23.832031 -10.972656 23.90625 -10.921875 L 24.671875 -10.46875 C 24.671875 -10.46875 24.789062 -10.394531 25.03125 -10.25 C 25.28125 -10.101562 25.40625 -10.03125 25.40625 -10.03125 C 25.519531 -9.957031 25.539062 -9.867188 25.46875 -9.765625 C 25.425781 -9.679688 25.347656 -9.675781 25.234375 -9.75 C 24.796875 -10.007812 24.378906 -9.960938 23.984375 -9.609375 L 20.4375 -6.515625 C 20.351562 -6.441406 20.269531 -6.425781 20.1875 -6.46875 C 20.1875 -6.46875 20.179688 -6.5 20.171875 -6.5625 Z M 31.234375 -6.53125 C 31.316406 -6.476562 31.320312 -6.398438 31.25 -6.296875 C 31.207031 -6.210938 31.144531 -6.195312 31.0625 -6.25 C 30.632812 -6.5 30.207031 -6.460938 29.78125 -6.140625 L 13.234375 8.21875 C 13.171875 8.25 13.113281 8.25 13.0625 8.21875 C 12.976562 8.175781 12.953125 8.128906 12.984375 8.078125 L 15.3125 -2.109375 L 12.171875 0.640625 C 12.097656 0.703125 12.019531 0.707031 11.9375 0.65625 C 11.9375 0.65625 11.929688 0.632812 11.921875 0.59375 C 11.859375 0.519531 11.863281 0.453125 11.9375 0.390625 L 15.453125 -2.625 L 17.90625 -13.234375 C 17.914062 -13.253906 17.921875 -13.265625 17.921875 -13.265625 C 18.023438 -13.785156 17.859375 -14.175781 17.421875 -14.4375 C 17.335938 -14.488281 17.316406 -14.554688 17.359375 -14.640625 C 17.429688 -14.742188 17.507812 -14.769531 17.59375 -14.71875 L 20.421875 -13.015625 C 20.535156 -12.953125 20.554688 -12.867188 20.484375 -12.765625 C 20.441406 -12.679688 20.363281 -12.671875 20.25 -12.734375 C 20.113281 -12.816406 19.976562 -12.828125 19.84375 -12.765625 C 19.6875 -12.710938 19.585938 -12.585938 19.546875 -12.390625 L 15.34375 6.015625 L 29.578125 -6.359375 C 29.734375 -6.492188 29.804688 -6.640625 29.796875 -6.796875 C 29.773438 -6.953125 29.695312 -7.066406 29.5625 -7.140625 C 29.457031 -7.210938 29.425781 -7.289062 29.46875 -7.375 C 29.539062 -7.476562 29.628906 -7.492188 29.734375 -7.421875 L 30.46875 -7 C 30.46875 -7 30.59375 -6.921875 30.84375 -6.765625 C 31.101562 -6.609375 31.234375 -6.53125 31.234375 -6.53125 Z M 31.234375 -6.53125 "/></g></g></g><g fill="#ffffff" fill-opacity="1"><g transform="translate(228.861953, 134.601503)"><g/></g></g><g fill="#ffffff" fill-opacity="1"><g transform="translate(236.494825, 140.292774)"><g><path d="M 13.421875 17.84375 C 13.484375 17.914062 13.476562 17.976562 13.40625 18.03125 C 13.332031 18.082031 13.265625 18.070312 13.203125 18 L 11.265625 15.390625 C 11.191406 15.285156 11.191406 15.207031 11.265625 15.15625 C 11.335938 15.101562 11.410156 15.128906 11.484375 15.234375 C 11.765625 15.609375 12.109375 15.644531 12.515625 15.34375 L 37.15625 -2.96875 L 15.546875 6.046875 C 15.472656 6.054688 15.410156 6.019531 15.359375 5.9375 C 15.296875 5.8125 15.316406 5.738281 15.421875 5.71875 L 38.203125 -3.75 C 38.148438 -3.71875 38.148438 -3.71875 38.203125 -3.75 C 38.234375 -3.769531 38.257812 -3.769531 38.28125 -3.75 C 38.28125 -3.75 38.289062 -3.757812 38.3125 -3.78125 C 38.332031 -3.75 38.34375 -3.734375 38.34375 -3.734375 C 38.382812 -3.734375 38.40625 -3.734375 38.40625 -3.734375 L 39.828125 -1.796875 C 39.890625 -1.722656 39.875 -1.644531 39.78125 -1.5625 C 39.707031 -1.507812 39.640625 -1.519531 39.578125 -1.59375 C 39.285156 -2 38.945312 -2.0625 38.5625 -1.78125 L 13.59375 16.78125 C 13.1875 17.082031 13.128906 17.4375 13.421875 17.84375 Z M 29.421875 -15.8125 C 29.472656 -15.738281 29.472656 -15.660156 29.421875 -15.578125 L 9.8125 8.359375 C 9.78125 8.378906 9.753906 8.398438 9.734375 8.421875 L 6.828125 9.65625 C 6.867188 9.613281 6.867188 9.613281 6.828125 9.65625 C 6.796875 9.675781 6.757812 9.675781 6.71875 9.65625 C 6.695312 9.625 6.6875 9.609375 6.6875 9.609375 C 6.664062 9.585938 6.65625 9.578125 6.65625 9.578125 C 6.632812 9.546875 6.613281 9.519531 6.59375 9.5 C 6.601562 9.46875 6.613281 9.425781 6.625 9.375 L 27.453125 -16.03125 L 2.8125 2.28125 C 2.40625 2.582031 2.347656 2.929688 2.640625 3.328125 C 2.703125 3.410156 2.695312 3.476562 2.625 3.53125 C 2.550781 3.582031 2.484375 3.566406 2.421875 3.484375 L 1.359375 2.046875 C 1.296875 1.972656 1.300781 1.910156 1.375 1.859375 C 1.445312 1.804688 1.515625 1.816406 1.578125 1.890625 C 1.867188 2.296875 2.21875 2.347656 2.625 2.046875 L 27.859375 -16.71875 C 27.941406 -17.039062 27.898438 -17.316406 27.734375 -17.546875 C 27.671875 -17.617188 27.675781 -17.679688 27.75 -17.734375 C 27.84375 -17.816406 27.921875 -17.820312 27.984375 -17.75 Z M 29.421875 -15.8125 "/></g></g></g><g fill="#ffffff" fill-opacity="1"><g transform="translate(249.545094, 157.410004)"><g><path d="M 24.5625 2.484375 C 25.125 4.097656 25.195312 5.726562 24.78125 7.375 C 24.363281 9.019531 23.535156 10.53125 22.296875 11.90625 C 21.066406 13.28125 19.535156 14.335938 17.703125 15.078125 C 15.867188 15.828125 14.035156 16.140625 12.203125 16.015625 C 10.367188 15.890625 8.71875 15.382812 7.25 14.5 C 5.789062 13.625 4.71875 12.421875 4.03125 10.890625 C 4.03125 10.890625 4.023438 10.878906 4.015625 10.859375 C 4.015625 10.847656 4.015625 10.84375 4.015625 10.84375 C 3.960938 10.726562 3.914062 10.613281 3.875 10.5 C 3.8125 10.351562 3.757812 10.222656 3.71875 10.109375 C 3.125 8.515625 3.039062 6.890625 3.46875 5.234375 C 3.90625 3.585938 4.738281 2.078125 5.96875 0.703125 C 7.195312 -0.660156 8.726562 -1.71875 10.5625 -2.46875 C 12.394531 -3.207031 14.226562 -3.515625 16.0625 -3.390625 C 17.90625 -3.273438 19.550781 -2.773438 21 -1.890625 C 22.445312 -1.003906 23.535156 0.207031 24.265625 1.75 C 24.398438 2 24.5 2.242188 24.5625 2.484375 Z M 12.703125 14.09375 C 13.109375 14.0625 13.484375 14.007812 13.828125 13.9375 C 14.828125 13.738281 15.835938 13.429688 16.859375 13.015625 C 18.203125 12.472656 19.410156 11.796875 20.484375 10.984375 C 20.972656 10.617188 21.425781 10.226562 21.84375 9.8125 C 21.875 9.800781 21.894531 9.785156 21.90625 9.765625 C 21.914062 9.742188 21.921875 9.734375 21.921875 9.734375 C 21.941406 9.722656 21.960938 9.707031 21.984375 9.6875 C 22.015625 9.664062 22.039062 9.628906 22.0625 9.578125 C 22.21875 9.410156 22.367188 9.25 22.515625 9.09375 C 22.691406 8.882812 22.867188 8.660156 23.046875 8.421875 C 23.066406 8.367188 23.066406 8.367188 23.046875 8.421875 C 23.679688 7.472656 24.113281 6.53125 24.34375 5.59375 C 24.375 5.570312 24.382812 5.550781 24.375 5.53125 C 24.375 5.519531 24.390625 5.507812 24.421875 5.5 C 24.484375 5.144531 24.519531 4.773438 24.53125 4.390625 C 24.53125 3.910156 24.472656 3.445312 24.359375 3 C 24.367188 2.925781 24.347656 2.828125 24.296875 2.703125 C 24.296875 2.703125 24.289062 2.691406 24.28125 2.671875 C 24.28125 2.660156 24.273438 2.640625 24.265625 2.609375 C 24.234375 2.484375 24.195312 2.363281 24.15625 2.25 C 24.101562 2.132812 24.039062 2.007812 23.96875 1.875 C 23.320312 0.5625 22.21875 -0.382812 20.65625 -0.96875 C 19.09375 -1.550781 17.34375 -1.722656 15.40625 -1.484375 C 14.082031 -1.316406 12.75 -0.960938 11.40625 -0.421875 C 9.601562 0.316406 8.066406 1.265625 6.796875 2.421875 C 5.535156 3.585938 4.65625 4.832031 4.15625 6.15625 C 3.664062 7.476562 3.617188 8.753906 4.015625 9.984375 C 4.085938 10.253906 4.1875 10.5 4.3125 10.71875 C 4.945312 12.03125 6.03125 12.976562 7.5625 13.5625 C 9.09375 14.144531 10.804688 14.320312 12.703125 14.09375 Z M 12.703125 14.09375 "/></g></g></g><g fill="#ffffff" fill-opacity="1"><g transform="translate(256.835861, 175.820593)"><g><path d="M 23.84375 8.125 C 23.863281 8.207031 23.828125 8.257812 23.734375 8.28125 L 22.734375 8.484375 C 22.671875 8.492188 22.617188 8.472656 22.578125 8.421875 C 22.535156 8.398438 22.515625 8.375 22.515625 8.34375 C 22.503906 8.3125 22.507812 8.28125 22.53125 8.25 C 22.738281 7.84375 22.847656 7.296875 22.859375 6.609375 C 22.867188 5.921875 22.644531 5.164062 22.1875 4.34375 C 22.082031 4.144531 21.96875 3.945312 21.84375 3.75 C 21.832031 3.71875 21.8125 3.691406 21.78125 3.671875 L 21.765625 3.625 C 20.960938 2.5 20.03125 1.617188 18.96875 0.984375 L 1.78125 4.40625 C 1.289062 4.5 1.09375 4.78125 1.1875 5.25 C 1.21875 5.375 1.1875 5.445312 1.09375 5.46875 C 1 5.488281 0.9375 5.4375 0.90625 5.3125 L 0.265625 2.109375 C 0.253906 2.023438 0.296875 1.972656 0.390625 1.953125 C 0.484375 1.929688 0.535156 1.960938 0.546875 2.046875 C 0.648438 2.535156 0.945312 2.734375 1.4375 2.640625 L 14.875 -0.03125 L 20.1875 -1.078125 C 20.375 -1.117188 20.492188 -1.1875 20.546875 -1.28125 C 20.585938 -1.414062 20.535156 -1.585938 20.390625 -1.796875 C 20.304688 -1.867188 20.3125 -1.941406 20.40625 -2.015625 C 20.488281 -2.066406 20.570312 -2.054688 20.65625 -1.984375 L 21.21875 -1.234375 L 22.25 0.109375 C 22.289062 0.160156 22.300781 0.203125 22.28125 0.234375 C 22.257812 0.304688 22.21875 0.347656 22.15625 0.359375 L 19.4375 0.90625 C 20.425781 1.550781 21.28125 2.394531 22 3.4375 L 22.015625 3.484375 C 22.054688 3.535156 22.078125 3.5625 22.078125 3.5625 C 22.253906 3.78125 22.394531 3.992188 22.5 4.203125 C 22.5 4.203125 22.503906 4.21875 22.515625 4.25 C 23.097656 5.3125 23.515625 6.476562 23.765625 7.75 C 23.785156 7.8125 23.8125 7.9375 23.84375 8.125 Z M 23.84375 8.125 "/></g></g></g><g fill="#ffffff" fill-opacity="1"><g transform="translate(259.573627, 186.226703)"><g><path d="M 21.890625 11.421875 C 21.804688 13.128906 21.265625 14.664062 20.265625 16.03125 C 19.273438 17.40625 17.953125 18.5 16.296875 19.3125 C 14.648438 20.132812 12.835938 20.554688 10.859375 20.578125 C 10.765625 20.578125 10.710938 20.53125 10.703125 20.4375 L 10.640625 9.28125 C 10.640625 9.15625 10.6875 9.09375 10.78125 9.09375 C 10.875 9.09375 10.921875 9.15625 10.921875 9.28125 L 10.984375 18.78125 C 12.867188 18.726562 14.597656 18.375 16.171875 17.71875 C 17.742188 17.0625 19.015625 16.1875 19.984375 15.09375 C 20.953125 14 21.476562 12.773438 21.5625 11.421875 C 21.59375 11.171875 21.585938 10.90625 21.546875 10.625 C 21.453125 9.269531 20.90625 8.046875 19.90625 6.953125 C 18.90625 5.859375 17.601562 4.992188 16 4.359375 C 14.40625 3.722656 12.648438 3.414062 10.734375 3.4375 C 8.816406 3.445312 7.0625 3.78125 5.46875 4.4375 C 3.882812 5.09375 2.601562 5.972656 1.625 7.078125 C 0.644531 8.179688 0.109375 9.410156 0.015625 10.765625 C -0.00390625 10.921875 -0.015625 11.0625 -0.015625 11.1875 C -0.00390625 12.914062 0.53125 14.5 1.59375 15.9375 C 2.65625 17.382812 4.101562 18.5 5.9375 19.28125 C 6.03125 19.34375 6.0625 19.421875 6.03125 19.515625 C 5.96875 19.609375 5.890625 19.640625 5.796875 19.609375 C 3.929688 18.804688 2.453125 17.648438 1.359375 16.140625 C 0.265625 14.628906 -0.285156 12.976562 -0.296875 11.1875 C -0.296875 11.03125 -0.300781 10.890625 -0.3125 10.765625 C -0.257812 9.066406 0.269531 7.53125 1.28125 6.15625 C 2.300781 4.78125 3.632812 3.6875 5.28125 2.875 C 6.9375 2.0625 8.753906 1.648438 10.734375 1.640625 C 12.710938 1.617188 14.53125 2.003906 16.1875 2.796875 C 17.851562 3.585938 19.191406 4.664062 20.203125 6.03125 C 21.210938 7.394531 21.769531 8.925781 21.875 10.625 C 21.914062 10.90625 21.921875 11.171875 21.890625 11.421875 Z M 21.890625 11.421875 "/></g></g></g></svg>