<svg width="122" height="125" viewBox="0 0 122 125" fill="none" xmlns="http://www.w3.org/2000/svg">
<path fill-rule="evenodd" clip-rule="evenodd" d="M100.159 91.833C103.003 91.833 105.584 90.6813 107.458 88.808C109.331 86.9347 110.483 84.3676 110.483 81.5091C110.483 78.6506 109.331 76.0835 107.458 74.2102C105.584 72.3369 103.017 71.1852 100.159 71.1852C97.3003 71.1852 94.7332 72.3369 92.8599 74.2102C90.9866 76.0835 89.8348 78.6506 89.8348 81.5091C89.8348 84.3676 90.9866 86.9347 92.8599 88.808C94.7332 90.6813 97.3003 91.833 100.159 91.833ZM32.3872 124.886H39.922V105.557C39.922 104.696 40.6158 104.002 41.4761 104.002C42.3364 104.002 43.0303 104.696 43.0303 105.557V124.886H78.9836V105.557C78.9836 104.696 79.6774 104.002 80.5378 104.002C81.3981 104.002 82.0919 104.696 82.0919 105.557V124.886H89.6267V108.748C89.6267 102.323 86.9902 96.4677 82.758 92.2354C78.5118 87.9893 72.6699 85.3667 66.2452 85.3667H55.8103C49.3856 85.3667 43.5298 88.0032 39.2975 92.2354C35.0514 96.4816 32.4288 102.323 32.4288 108.748V124.886H32.3872ZM113.744 110.247V124.886H92.7072V108.748C92.7072 104.211 91.5555 99.9368 89.5296 96.2041C90.3205 95.8849 91.1253 95.6212 91.9579 95.427C93.2762 95.1078 94.6638 94.9413 96.1208 94.9413H104.211C109.095 94.9413 113.549 96.9395 116.769 100.173C119.988 103.392 122 107.846 122 112.731V124.9H116.852V110.261C116.852 109.4 116.158 108.707 115.298 108.707C114.437 108.707 113.744 109.4 113.744 110.261V110.247ZM21.8412 91.833C24.6859 91.833 27.2668 90.6813 29.1401 88.808C30.9995 86.9347 32.1652 84.3676 32.1652 81.5091C32.1652 78.6506 31.0134 76.0835 29.1401 74.2102C27.2668 72.3369 24.6997 71.1852 21.8412 71.1852C18.9827 71.1852 16.4156 72.3369 14.5423 74.2102C12.669 76.0835 11.5173 78.6506 11.5173 81.5091C11.5173 84.3676 12.669 86.9347 14.5423 88.808C16.4156 90.6813 18.9827 91.833 21.8412 91.833ZM5.14809 110.247V124.886H0V112.717C0 107.832 1.99818 103.378 5.23135 100.159C8.46451 96.9395 12.9049 94.9274 17.7894 94.9274H25.8792C27.3223 94.9274 28.71 95.094 30.0421 95.4131C30.8747 95.6074 31.6795 95.871 32.4704 96.1902C30.4445 99.9229 29.2928 104.211 29.2928 108.734V124.872H8.25637V110.233C8.25637 109.373 7.56256 108.679 6.70223 108.679C5.8419 108.679 5.14809 109.373 5.14809 110.233V110.247ZM67.6884 45.2643V18.955C67.6884 18.0946 68.3822 17.4008 69.2425 17.4008H72.8226L61 0L49.1774 17.4008H52.7575C53.6178 17.4008 54.3116 18.0946 54.3116 18.955V45.2643H67.7022H67.6884ZM104.544 59.3765V41.5177C104.544 40.6574 105.237 39.9636 106.098 39.9636H107.86L100.159 28.6267L92.4575 39.9636H94.2197C95.0801 39.9636 95.7739 40.6574 95.7739 41.5177V59.3765H104.558H104.544ZM26.2261 59.3765V41.5177C26.2261 40.6574 26.9199 39.9636 27.7803 39.9636H29.5425L21.8412 28.6267L14.1399 39.9636H15.9022C16.7625 39.9636 17.4563 40.6574 17.4563 41.5177V59.3765H26.24H26.2261ZM60.9861 82.2584C64.7882 82.2584 68.2295 80.7182 70.7134 78.2343C73.1972 75.7505 74.7375 72.3091 74.7375 68.507C74.7375 64.705 73.1972 61.2636 70.7134 58.7798C68.2295 56.296 64.7882 54.7557 60.9861 54.7557C57.184 54.7557 53.7427 56.296 51.2589 58.7798C48.775 61.2636 47.2348 64.705 47.2348 68.507C47.2348 72.3091 48.775 75.7505 51.2589 78.2343C53.7427 80.7182 57.184 82.2584 60.9861 82.2584Z" fill="#DFB96E"/>
</svg>
